<?xml version="1.0" encoding="UTF-8"?>
<svg xmlns="http://www.w3.org/2000/svg" xmlns:xlink="http://www.w3.org/1999/xlink" width="105px" height="150px" viewBox="0 0 79 112" version="1.1">
<g id="surface1">
<path style=" stroke:none;fill-rule:evenodd;fill:rgb(90.588235%,22.352941%,0%);fill-opacity:1;" d="M 8.667969 97.703125 C -12.753906 65.363281 13.109375 62.472656 6.511719 18.195312 C 22.695312 39.082031 27.210938 64.707031 34.007812 72.285156 C 38.695312 78.234375 41.003906 85.417969 40.375 92.800781 C 40.3125 98.640625 47.820312 105.722656 45.765625 111.175781 C 34.851562 102.578125 16.078125 108.183594 8.667969 97.703125 Z M 8.667969 97.703125 "/>
<path style=" stroke:none;fill-rule:evenodd;fill:rgb(90.588235%,22.352941%,0%);fill-opacity:1;" d="M 41.0625 107.148438 C 41.1875 100.953125 33.566406 98.265625 30.5 93.433594 C 25.421875 89.734375 23.816406 83.984375 23.703125 78.316406 C 23.289062 69.261719 31.5 15.253906 43.460938 0.75 C 38.875 23.023438 50.257812 52.691406 57.285156 62.507812 C 62.042969 70.132812 63.832031 78.914062 62.121094 87.554688 C 61.277344 94.449219 55.472656 98.589844 52.328125 104.769531 C 49.1875 108.496094 44.914062 108.847656 41.0625 107.148438 Z M 41.0625 107.148438 "/>
<path style=" stroke:none;fill-rule:evenodd;fill:rgb(90.588235%,22.352941%,0%);fill-opacity:1;" d="M 45.40625 110.179688 C 47.226562 104.796875 43.621094 96.269531 42.484375 91.277344 C 39.402344 86.785156 39.699219 81.355469 41.183594 76.378906 C 43.367188 68.363281 43.730469 30.53125 79 12.765625 C 51.644531 39.15625 69.808594 60.605469 72.769531 70.9375 C 74.5 78.78125 73.617188 86.964844 69.714844 94.027344 C 64.332031 103.769531 49.949219 109.144531 45.40625 110.179688 Z M 45.40625 110.179688 "/>
<path style=" stroke:none;fill-rule:evenodd;fill:rgb(90.588235%,54.901961%,0%);fill-opacity:1;" d="M 39.59375 107.023438 C 39.683594 101.96875 33.925781 99.773438 31.605469 95.824219 C 27.761719 92.808594 26.546875 88.113281 26.460938 83.488281 C 26.148438 76.097656 33.808594 36.996094 39.957031 20.160156 C 35.765625 58.328125 46.546875 62.566406 51.863281 70.578125 C 55.464844 76.804688 56.816406 83.972656 55.515625 91.027344 C 54.882812 96.65625 52.136719 101.78125 49.761719 106.828125 C 47.386719 109.867188 42.503906 108.410156 39.59375 107.023438 Z M 39.59375 107.023438 "/>
<path style=" stroke:none;fill-rule:evenodd;fill:rgb(90.588235%,54.901961%,0%);fill-opacity:1;" d="M 17.492188 99.777344 C -4.515625 77.5625 19.460938 76.015625 13.359375 45.503906 C 20.605469 59.882812 26.617188 70.6875 29.253906 80.898438 C 33.164062 84.503906 46.65625 106.515625 45.847656 110.507812 C 37.34375 105.75 23.824219 106.175781 17.492188 99.777344 Z M 17.492188 99.777344 "/>
<path style=" stroke:none;fill-rule:evenodd;fill:rgb(90.588235%,88.235294%,0%);fill-opacity:1;" d="M 21.886719 98.441406 C 8.722656 86.152344 18.554688 78.9375 18.433594 63.589844 C 22.074219 77.023438 33.585938 80.328125 33.4375 88.402344 C 35.335938 90.816406 45.292969 108.027344 44.460938 110.238281 C 40.035156 106.753906 26.871094 103.097656 21.886719 98.441406 Z M 21.886719 98.441406 "/>
<path style=" stroke:none;fill-rule:evenodd;fill:rgb(90.588235%,54.901961%,0%);fill-opacity:1;" d="M 43.039062 96.78125 C 40.730469 93.414062 40.953125 89.34375 42.066406 85.605469 C 43.707031 79.59375 50.910156 46.15625 61.203125 38.886719 C 53.773438 52.632812 63.546875 73.769531 65.765625 81.519531 C 67.066406 87.410156 67.429688 94.375 63.472656 98.847656 C 57.503906 105.59375 49.960938 109.527344 45.738281 110.46875 C 43.054688 112.324219 43.894531 100.53125 43.039062 96.78125 Z M 43.039062 96.78125 "/>
<path style=" stroke:none;fill-rule:evenodd;fill:rgb(90.588235%,88.235294%,0%);fill-opacity:1;" d="M 39.324219 107.394531 C 39.511719 104.296875 36.039062 102.816406 34.71875 100.339844 C 32.441406 98.402344 31.816406 95.496094 31.882812 92.660156 C 31.878906 88.125 31.722656 59.855469 37.5625 52.828125 C 34.980469 63.878906 44.710938 80.34375 47.765625 85.382812 C 49.808594 89.285156 50.453125 93.707031 49.480469 97.992188 C 48.949219 101.421875 47.136719 104.496094 45.554688 107.523438 C 44.019531 109.332031 41.074219 108.316406 39.324219 107.394531 Z M 39.324219 107.394531 "/>
<path style=" stroke:none;fill-rule:evenodd;fill:rgb(90.588235%,88.235294%,0%);fill-opacity:1;" d="M 42.101562 107.789062 C 43.597656 105.636719 41.742188 103.085938 41.882812 100.738281 C 41.09375 98.371094 41.917969 96.007812 43.214844 93.992188 C 45.207031 90.71875 48.710938 66.386719 56.015625 63.796875 C 49.289062 70.667969 60.96875 89.046875 60.957031 93.984375 C 60.714844 97.664062 56.15625 102.648438 53.570312 105.324219 C 51.679688 107.574219 47.925781 109.734375 45.453125 111.25 C 43.550781 110.117188 42.960938 109.199219 42.101562 107.789062 Z M 42.101562 107.789062 "/>
<path style=" stroke:none;fill-rule:evenodd;fill:rgb(100%,100%,61.960784%);fill-opacity:1;" d="M 39.582031 105.324219 C 34.933594 98.121094 36.660156 90.089844 38.632812 81.324219 C 39.535156 87.273438 43.285156 94.492188 45.40625 96.855469 C 46.871094 98.710938 47.59375 100.957031 47.394531 103.261719 C 47.378906 105.085938 46.433594 107.296875 45.796875 108.996094 C 42.386719 106.3125 41.894531 108.597656 39.582031 105.324219 Z M 39.582031 105.324219 "/>
<path style=" stroke:none;fill-rule:evenodd;fill:rgb(100%,100%,61.960784%);fill-opacity:1;" d="M 44.808594 101.753906 C 48.410156 93.996094 44.84375 87.890625 53.097656 81.796875 C 50.632812 87.441406 56.269531 96.351562 55.65625 99.445312 C 54.625 104.640625 47.503906 108.507812 45.699219 108.90625 C 46.132812 104.636719 43.28125 105.445312 44.808594 101.753906 Z M 44.808594 101.753906 "/>
<path style=" stroke:none;fill-rule:evenodd;fill:rgb(100%,100%,61.960784%);fill-opacity:1;" d="M 19.09375 76.359375 C 38.453125 100.4375 38.027344 88.28125 45.703125 108.898438 C 9.109375 92.878906 25.535156 94.324219 19.09375 76.359375 Z M 19.09375 76.359375 "/>
</g>
</svg>
